<svg viewBox="0 0 100 100" xmlns="http://www.w3.org/2000/svg">
  <defs>
    <linearGradient id="maiePulse" x1="2" y1="0" x2="84" y2="0" gradientUnits="userSpaceOnUse">
      <stop offset="0%"  stop-color="#A52A2A"/>
      <stop offset="50%" stop-color="#FFD166"/>
      <stop offset="100%" stop-color="#005D9A"/>
    </linearGradient>
  </defs>
  <g transform="translate(50,50) rotate(-8) scale(0.94) translate(-43,-28)">
    <path d="M 2,32 L 7,14 L 12,46 L 18,10 L 24,40
             C 29,20 33,20 33,30 C 33,40 39,40 41,28
             L 46,44 L 50,20 L 54,38
             C 58,26 63,26 63,34 C 63,40 68,38 70,32
             Q 73,29 76,32 T 84,32"
          fill="none" stroke="url(#maiePulse)" stroke-width="9"
          stroke-linecap="round" stroke-linejoin="round"/>
    <circle cx="2"  cy="32" r="5.6" fill="#A52A2A"/>
    <circle cx="18" cy="10" r="6.4" fill="#FFD166"/>
    <circle cx="84" cy="32" r="5.6" fill="#005D9A"/>
  </g>
</svg>
